<svg width="27" height="24" viewBox="0 0 27 24" fill="none" xmlns="http://www.w3.org/2000/svg">
<g id="copy_24px">
<g id="icon/content/copy_24px">
<path fill-rule="evenodd" clip-rule="evenodd" d="M18.33 1H5.62976C4.46558 1 3.51306 1.9 3.51306 3V17H5.62976V3H18.33V1ZM21.505 5H9.86316C8.69898 5 7.74646 5.9 7.74646 7V21C7.74646 22.1 8.69898 23 9.86316 23H21.505C22.6692 23 23.6217 22.1 23.6217 21V7C23.6217 5.9 22.6692 5 21.505 5ZM9.86316 21H21.505V7H9.86316V21Z" fill="#888d90"/>
<path d="M18.33 1H18.83V0.5H18.33V1ZM3.51306 17H3.01306V17.5H3.51306V17ZM5.62976 17V17.5H6.12976V17H5.62976ZM5.62976 3V2.5H5.12976V3H5.62976ZM18.33 3V3.5H18.83V3H18.33ZM21.505 21V21.5H22.005V21H21.505ZM9.86316 21H9.36316V21.5H9.86316V21ZM21.505 7H22.005V6.5H21.505V7ZM9.86316 7V6.5H9.36316V7H9.86316ZM5.62976 1.5H18.33V0.5H5.62976V1.5ZM4.01306 3C4.01306 2.20248 4.71462 1.5 5.62976 1.5V0.5C4.21653 0.5 3.01306 1.59752 3.01306 3H4.01306ZM4.01306 17V3H3.01306V17H4.01306ZM5.62976 16.5H3.51306V17.5H5.62976V16.5ZM5.12976 3V17H6.12976V3H5.12976ZM18.33 2.5H5.62976V3.5H18.33V2.5ZM17.83 1V3H18.83V1H17.83ZM9.86316 5.5H21.505V4.5H9.86316V5.5ZM8.24646 7C8.24646 6.20248 8.94802 5.5 9.86316 5.5V4.5C8.44993 4.5 7.24646 5.59752 7.24646 7H8.24646ZM8.24646 21V7H7.24646V21H8.24646ZM9.86316 22.5C8.94802 22.5 8.24646 21.7975 8.24646 21H7.24646C7.24646 22.4025 8.44993 23.5 9.86316 23.5V22.5ZM21.505 22.5H9.86316V23.5H21.505V22.5ZM23.1217 21C23.1217 21.7975 22.4202 22.5 21.505 22.5V23.5C22.9182 23.5 24.1217 22.4025 24.1217 21H23.1217ZM23.1217 7V21H24.1217V7H23.1217ZM21.505 5.5C22.4202 5.5 23.1217 6.20248 23.1217 7H24.1217C24.1217 5.59752 22.9182 4.5 21.505 4.5V5.5ZM21.505 20.5H9.86316V21.5H21.505V20.5ZM21.005 7V21H22.005V7H21.005ZM9.86316 7.5H21.505V6.5H9.86316V7.5ZM10.3632 21V7H9.36316V21H10.3632Z" fill="#888d90"/>
</g>
</g>
</svg>
