<svg width="26" height="24" viewBox="0 0 26 24" fill="none" xmlns="http://www.w3.org/2000/svg">
<g id="download_24px">
<g id="icon/file/download_24px">
<path  d="M20.3843 9.5H16.1509V3.5H9.80078V9.5H5.56738L12.9758 16.5L20.3843 9.5ZM11.9175 11.5V5.5H14.0342V11.5H15.2725L12.9758 13.67L10.6792 11.5H11.9175ZM20.3843 20.5V18.5H5.56738V20.5H20.3843Z" fill="#888d90"/>
<path d="M16.1509 9.5H15.6509V10H16.1509V9.5ZM20.3843 9.5L20.7277 9.86343L21.6415 9H20.3843V9.5ZM16.1509 3.5H16.6509V3H16.1509V3.5ZM9.80078 3.5V3H9.30078V3.5H9.80078ZM9.80078 9.5V10H10.3008V9.5H9.80078ZM5.56738 9.5V9H4.31018L5.22399 9.86343L5.56738 9.5ZM12.9758 16.5L12.6324 16.8634L12.9758 17.1879L13.3192 16.8634L12.9758 16.5ZM11.9175 5.5V5H11.4175V5.5H11.9175ZM11.9175 11.5V12H12.4175V11.5H11.9175ZM14.0342 5.5H14.5342V5H14.0342V5.5ZM14.0342 11.5H13.5342V12H14.0342V11.5ZM15.2725 11.5L15.6158 11.8634L16.5297 11H15.2725V11.5ZM12.9758 13.67L12.6324 14.0334L12.9758 14.3579L13.3192 14.0334L12.9758 13.67ZM10.6792 11.5V11H9.42201L10.3358 11.8634L10.6792 11.5ZM20.3843 18.5H20.8843V18H20.3843V18.5ZM20.3843 20.5V21H20.8843V20.5H20.3843ZM5.56738 18.5V18H5.06738V18.5H5.56738ZM5.56738 20.5H5.06738V21H5.56738V20.5ZM16.1509 10H20.3843V9H16.1509V10ZM15.6509 3.5V9.5H16.6509V3.5H15.6509ZM9.80078 4H16.1509V3H9.80078V4ZM10.3008 9.5V3.5H9.30078V9.5H10.3008ZM5.56738 10H9.80078V9H5.56738V10ZM13.3192 16.1366L5.91078 9.13657L5.22399 9.86343L12.6324 16.8634L13.3192 16.1366ZM20.0409 9.13657L12.6324 16.1366L13.3192 16.8634L20.7277 9.86343L20.0409 9.13657ZM11.4175 5.5V11.5H12.4175V5.5H11.4175ZM14.0342 5H11.9175V6H14.0342V5ZM14.5342 11.5V5.5H13.5342V11.5H14.5342ZM15.2725 11H14.0342V12H15.2725V11ZM13.3192 14.0334L15.6158 11.8634L14.9291 11.1366L12.6324 13.3066L13.3192 14.0334ZM10.3358 11.8634L12.6324 14.0334L13.3192 13.3066L11.0226 11.1366L10.3358 11.8634ZM11.9175 11H10.6792V12H11.9175V11ZM19.8843 18.5V20.5H20.8843V18.5H19.8843ZM5.56738 19H20.3843V18H5.56738V19ZM6.06738 20.5V18.5H5.06738V20.5H6.06738ZM20.3843 20H5.56738V21H20.3843V20Z" fill="#888d90"/>
</g>
</g>
</svg>
